<svg xmlns="http://www.w3.org/2000/svg" viewBox="0 0 64 64">
  <defs>
    <linearGradient id="bg" x1="0" y1="0" x2="1" y2="1">
      <stop offset="0" stop-color="#1b2330"/>
      <stop offset="1" stop-color="#0b0e14"/>
    </linearGradient>
  </defs>
  <rect x="1" y="1" width="62" height="62" rx="14" fill="url(#bg)" stroke="#27303f" stroke-width="2"/>
  <path d="M9 50 L22 40 L33 45 L54 16" fill="none" stroke="#3fb950" stroke-opacity=".45" stroke-width="3.5" stroke-linecap="round" stroke-linejoin="round"/>
  <line x1="18" y1="23" x2="18" y2="51" stroke="#3fb950" stroke-width="3"/>
  <rect x="13" y="29" width="10" height="14" rx="2" fill="#3fb950"/>
  <line x1="32" y1="17" x2="32" y2="45" stroke="#f85149" stroke-width="3"/>
  <rect x="27" y="22" width="10" height="14" rx="2" fill="#f85149"/>
  <line x1="46" y1="9" x2="46" y2="38" stroke="#3fb950" stroke-width="3"/>
  <rect x="41" y="15" width="10" height="15" rx="2" fill="#3fb950"/>
  <circle cx="50" cy="49" r="10.5" fill="#f7931a"/>
  <g stroke="#0b0e14" fill="none" stroke-linecap="round" stroke-linejoin="round">
    <path d="M44 43.5 L44 54.5 L56 54.5" stroke-width="2"/>
    <path d="M46.5 51 L50 46.5 L52.5 48.8 L56 43.5" stroke-width="2.4"/>
  </g>
  <circle cx="56" cy="43.5" r="1.6" fill="#0b0e14"/>
</svg>
